inDegrees=no
num_controls=7
num_derivatives=13
num_iterations=157
num_multipliers=7
num_parameters=0
num_slacks=7
num_states=26
objective=6.402795
objective_accelerations=0.578693
objective_balance=0.067361
objective_effort=0.507159
objective_height=5.153542
objective_ligament=0.096040
solver_duration=1342.070455
status=Solve_Succeeded
success=true
DataType=double
version=3
OpenSimVersion=4.4-2022-07-23-0e9fedc
endheader
time	/jointset/ground_pelvis/pelvis_tilt/value	/jointset/ground_pelvis/pelvis_tx/value	/jointset/ground_pelvis/pelvis_ty/value	/jointset/hip_r/hip_flexion_r/value	/jointset/hip_r/hip_adduction_r/value	/jointset/hip_r/hip_rotation_r/value	/jointset/back/lumbar_extension/value	/jointset/patellofemoral_r/patellar_flexion_r/value	/jointset/knee_r/knee_flexion_r/value	/jointset/knee_r/knee_adduction_r/value	/jointset/knee_r/knee_rotation_r/value	/jointset/ankle_r/ankle_angle_r/value	/jointset/subtalar_r/subtalar_angle_r/value	/jointset/ground_pelvis/pelvis_tilt/speed	/jointset/ground_pelvis/pelvis_tx/speed	/jointset/ground_pelvis/pelvis_ty/speed	/jointset/hip_r/hip_flexion_r/speed	/jointset/hip_r/hip_adduction_r/speed	/jointset/hip_r/hip_rotation_r/speed	/jointset/back/lumbar_extension/speed	/jointset/patellofemoral_r/patellar_flexion_r/speed	/jointset/knee_r/knee_flexion_r/speed	/jointset/knee_r/knee_adduction_r/speed	/jointset/knee_r/knee_rotation_r/speed	/jointset/ankle_r/ankle_angle_r/speed	/jointset/subtalar_r/subtalar_angle_r/speed	/forceset/tau_hip_flexion_r	/forceset/tau_hip_adduction_r	/forceset/tau_hip_rotation_r	/forceset/tau_knee_flexion_r	/forceset/tau_ankle_angle_r	/forceset/tau_subtalar_angle_r	/forceset/tau_lumbar_extension	lambda_cid13_p0	lambda_cid14_p0	lambda_cid14_p1	lambda_cid14_p2	lambda_cid14_p3	lambda_cid14_p4	lambda_cid14_p5	/jointset/ground_pelvis/pelvis_tilt/accel	/jointset/ground_pelvis/pelvis_tx/accel	/jointset/ground_pelvis/pelvis_ty/accel	/jointset/hip_r/hip_flexion_r/accel	/jointset/hip_r/hip_adduction_r/accel	/jointset/hip_r/hip_rotation_r/accel	/jointset/back/lumbar_extension/accel	/jointset/patellofemoral_r/patellar_flexion_r/accel	/jointset/knee_r/knee_flexion_r/accel	/jointset/knee_r/knee_adduction_r/accel	/jointset/knee_r/knee_rotation_r/accel	/jointset/ankle_r/ankle_angle_r/accel	/jointset/subtalar_r/subtalar_angle_r/accel	gamma_cid13_p0	gamma_cid14_p0	gamma_cid14_p1	gamma_cid14_p2	gamma_cid14_p3	gamma_cid14_p4	gamma_cid14_p5
1	-0.2913962010827065	0.006859565564877952	0.6789428012291259	1.394859540386338	-0.2475104791335149	0.02202240777800227	-0.43632703743028	1.345182814500406	1.345182814500343	0.02788636678421904	0.1745303140912152	0.4363237217976151	0.0824859072820387	0.0007692571344858322	0.004040689238406644	0.01480798140860845	-0.04103625158373355	0.0001239844400647567	-0.01302177299034133	0.001050034586346011	-0.04599422259741061	-0.04599422259741331	-0.0009446379885356233	-4.810773209650076e-05	-0.007449303748345417	-0.002118390926632945	-0.2768307649843572	0.01032528250558666	0.01895695825064198	-0.4842915392043342	-0.01861307854207235	0.006825380457796725	0.2965382677697451	-0.04484634533822961	-54.6043531671537	-6.048339279111516	0.7980345651050844	16.49165516780294	-798.1859001432116	64.84039491001948	1.350450853613	0.1221403953189803	1.692184320018268	-5.342269980857943	-0.004906351188149897	-1.201908458847069	0.1147752468543243	-5.081233257034551	-5.08123325703464	0.1677983866704398	0.00925872673799023	-1.314623268741005	-0.4450271870814946	3.95806691662091e-10	-3.437482230796804e-09	9.404031325058005e-09	3.747272707936899e-09	6.655141294506513e-09	-4.694574612666786e-09	7.189625275117251e-09
1.01	-0.2913222128458746	0.006906115456560639	0.6791753235044532	1.394183416656894	-0.2475093303723741	0.02183262112360858	-0.4363084824071318	1.344468882612551	1.34446888261254	0.02788555662160089	0.1745298298897386	0.4361834885108468	0.08244272417403038	0.01397701619738886	0.005276313255885761	0.0316937685916808	-0.09415074775412724	0.0001058749489587338	-0.02493463215980006	0.00281245775146075	-0.09681158765049136	-0.09681158765049032	0.0007896318845075081	-4.639411102246798e-05	-0.02060411898436184	-0.006519488267790656	-0.2778479548975245	0.01062053080320475	0.01895691414231898	-0.4833755939755377	-0.01988150396969344	0.006931277848300822	0.2974956070106362	-0.04485702325761269	-55.02955812607667	-6.074039475955113	0.7989805107628983	16.69725540824416	-798.625733103363	64.72909683743119	1.298232741358027	0.1253278920841818	1.686368479046113	-5.290377244806596	-0.0002455067358041353	-1.18583731160937	0.2296990067131293	-5.084903161775506	-5.084903161774697	0.1772978007907985	-0.004019089496438876	-1.316926738376995	-0.4378351604817519	6.520254843529562e-10	-2.992916110204635e-09	2.352137893387618e-08	5.669936519318993e-09	4.337124757349531e-09	-8.356544545231298e-09	2.194240934238577e-08
1.02	-0.291117688156661	0.006965232485843375	0.6795766221639298	1.392977280403839	-0.2475083591578506	0.02152373334434432	-0.4362677585212458	1.343246194067699	1.343246194067731	0.02790230046036684	0.1745294334705714	0.435911503854232	0.08235549326204507	0.02687654760944688	0.006554116758416374	0.04856325823837671	-0.1470387563115757	8.847511128744043e-05	-0.03684199795382009	0.005483807131464248	-0.1477455539967973	-0.1477455539967921	0.00256616228432627	-3.055126148379132e-05	-0.03379957771417556	-0.01092795172290538	-0.2788651448105894	0.01091577910081133	0.01895687003415938	-0.4824596487467431	-0.02114992939733775	0.007037175238773131	0.2984529462516267	-0.04487285970928782	-55.46507548477108	-6.100237058547101	0.7985115700656129	16.92128593928791	-799.2308294324226	64.62242341130116	1.288805323443771	0.1305762923295357	1.68892481274301	-5.296972458269075	-0.004764420501259728	-1.200809783759394	0.2965604898318376	-5.104553515679556	-5.104553515679556	0.1762504920255757	0.01208457243102374	-1.322751967500028	-0.4465004098728426	7.697118592792205e-10	-2.87072910945138e-09	3.458361438320555e-08	8.690324273540141e-09	3.041269868622528e-09	-1.071521021680779e-08	3.175031363288313e-08
1.03	-0.2907856649676872	0.007037377808015961	0.68014645835377	1.39124347155882	-0.2475075230815985	0.0210958487807052	-0.4361958199325502	1.341513731305936	1.341513731305952	0.02793698333006267	0.1745292206924338	0.4355074091706711	0.08222423001591295	0.03947805470663245	0.007885908494050025	0.06539334637348508	-0.1996745145303312	8.213291651621126e-05	-0.04872855002775819	0.00905501916161278	-0.1987517256012964	-0.1987517256012962	0.004374655142798159	-1.383673012464018e-05	-0.04702175581175616	-0.01531763657534979	-0.2794861250353365	0.0111158912341706	0.01897151250379117	-0.4813536705052838	-0.0220100385000913	0.007128924433879138	0.2991143807672061	-0.04489144154902552	-55.73896908250507	-6.097915907038741	0.7862264345814213	16.99780522247609	-799.362817097311	64.53824669128848	1.23831858576935	0.1361250809022006	1.67845318422015	-5.23960255159909	0.001943106935977147	-1.18162611128989	0.410067842051656	-5.099358247514853	-5.099358247515446	0.1837901614752991	-0.003805056056285976	-1.322312254442269	-0.4341346541253073	8.859846381058453e-10	-2.751831691553627e-09	4.561467521866258e-08	1.172191329248414e-08	1.755845200797879e-09	-1.306057686531296e-08	4.150775996647462e-08
